<svg width="324" height="288" viewBox="0 0 324 288" fill="none" xmlns="http://www.w3.org/2000/svg">
<ellipse cx="162" cy="143.71" rx="162" ry="143.71" fill="black" fill-opacity="0.95"/>
<path d="M98.1519 57.4839C99.3268 59.5522 100.807 61.4741 102.556 63.1987C104.305 64.9234 106.308 66.4328 108.512 67.6941C110.712 68.9525 113.096 69.9478 115.598 70.6532C118.097 71.3616 120.695 71.771 123.316 71.8727C143.462 74.0277 157.492 73.1758 170.365 82.5821C170.365 82.5821 170.365 74.5926 173.132 72.2702C175.9 69.9478 176.477 70.967 176.928 71.5917C177.38 72.2134 173.451 73.1758 175.125 78.3886C176.799 83.6013 180.918 94.8188 182.721 98.6148C183.217 99.9807 183.631 101.368 183.957 102.772C184.283 104.177 184.521 105.597 184.674 107.026C184.823 108.451 184.888 109.886 184.864 111.321C184.837 112.755 184.725 114.187 184.524 115.61C184.062 116.77 183.56 117.914 183.01 119.044C182.463 120.174 181.872 121.289 181.237 122.383C180.602 123.477 179.923 124.55 179.207 125.605C178.487 126.657 177.726 127.688 176.928 128.695C174.803 130.961 164.572 141.443 163.733 146.823C163.519 147.663 163.39 148.518 163.346 149.379C163.299 150.24 163.339 151.101 163.465 151.952C163.594 152.807 163.805 153.65 164.097 154.469C164.389 155.291 164.762 156.089 165.214 156.851C165.896 158.334 166.796 159.733 167.886 161.009C168.979 162.288 170.253 163.436 171.679 164.425C173.108 165.415 174.674 166.237 176.344 166.87C178.012 167.507 179.764 167.946 181.563 168.182C192.31 168.637 195.913 165.292 195.913 161.496C195.655 161.592 195.39 161.673 195.122 161.738C194.853 161.804 194.578 161.858 194.303 161.897C194.028 161.936 193.75 161.956 193.468 161.968C193.19 161.977 192.911 161.971 192.633 161.95C191.475 161.667 192.633 160.931 193.146 160.307C193.431 160.002 193.689 159.676 193.923 159.338C194.157 158.997 194.365 158.648 194.545 158.283C194.724 157.918 194.874 157.545 194.996 157.165C195.118 156.783 195.21 156.394 195.271 156.002C195.913 153.623 198.745 134.643 209.75 125.638C211.4 124.266 213.125 122.969 214.921 121.749C216.721 120.533 218.585 119.397 220.514 118.345C222.442 117.296 224.429 116.33 226.469 115.457C228.51 114.585 230.598 113.802 232.727 113.117C232.727 113.117 234.079 111.246 230.795 110.681C227.515 110.113 222.493 110.227 220.884 108.472C220.269 107.928 219.712 107.334 219.223 106.697C218.738 106.06 218.32 105.385 217.977 104.676C217.638 103.968 217.373 103.236 217.193 102.482C217.009 101.732 216.911 100.967 216.894 100.199C217.604 97.3116 218.761 98.7283 219.532 100.199C219.916 100.746 220.385 101.239 220.928 101.666C221.471 102.094 222.082 102.447 222.744 102.719C223.403 102.988 224.106 103.173 224.826 103.263C225.546 103.355 226.279 103.355 226.999 103.26C226.999 103.26 227.451 102.919 226.999 102.805C226.568 102.737 226.14 102.641 225.722 102.521C225.305 102.402 224.897 102.258 224.5 102.091C224.103 101.924 223.719 101.732 223.352 101.52C222.986 101.311 222.632 101.075 222.3 100.824C221.98 100.555 221.692 100.256 221.441 99.9359C221.189 99.6131 220.975 99.2693 220.806 98.9107C220.632 98.552 220.507 98.1754 220.422 97.7928C220.337 97.4102 220.3 97.0216 220.306 96.6301C220.306 96.6301 220.694 96.6301 221.658 97.0276C221.909 97.1651 222.174 97.2817 222.452 97.3743C222.727 97.464 223.013 97.5328 223.305 97.5776C223.597 97.6224 223.892 97.6404 224.191 97.6314C224.486 97.6254 224.778 97.5955 225.067 97.5357C225.77 97.3564 226.476 97.195 227.189 97.0515C227.902 96.9051 228.619 96.7795 229.339 96.6689C230.058 96.5613 230.782 96.4717 231.508 96.397C232.235 96.3252 232.962 96.2714 233.692 96.2356C236.14 96.2356 239.033 97.4252 239.743 99.2365C239.865 99.5533 239.977 99.8731 240.079 100.193C240.181 100.516 240.272 100.842 240.354 101.167C240.435 101.493 240.503 101.822 240.564 102.151C240.622 102.482 240.67 102.814 240.707 103.146C240.945 102.847 241.152 102.53 241.325 102.201C241.498 101.87 241.637 101.526 241.742 101.176C241.848 100.824 241.916 100.462 241.946 100.1C241.977 99.7356 241.973 99.371 241.929 99.0093C241.844 98.6536 241.722 98.3069 241.566 97.9691C241.41 97.6314 241.223 97.3086 241.006 96.9977C240.785 96.6899 240.537 96.3999 240.259 96.128C239.984 95.8589 239.681 95.6079 239.355 95.3837C238.391 94.7052 237.104 93.4588 239.355 93.3452C239.817 93.3512 240.279 93.3961 240.734 93.4708C241.189 93.5485 241.634 93.6591 242.065 93.8055C242.5 93.949 242.917 94.1254 243.315 94.3346C243.712 94.5408 244.089 94.7799 244.442 95.046C245.922 95.9516 248.303 98.5012 249.783 98.7821C250.388 98.7941 250.989 98.821 251.593 98.8658C252.194 98.9107 252.795 98.9764 253.389 99.0541C253.987 99.1348 254.581 99.2335 255.172 99.35C255.763 99.4636 256.347 99.5981 256.927 99.7476C258.921 100.596 260.014 101.616 259.949 103.032C259.888 104.449 258.214 105.923 257.505 106.601C257.335 106.816 257.179 107.038 257.036 107.268C256.897 107.498 256.771 107.734 256.662 107.979C256.554 108.221 256.462 108.469 256.387 108.723C256.316 108.974 256.258 109.231 256.218 109.492C256.218 109.492 258.921 108.924 259.501 108.018C259.63 107.728 259.773 107.441 259.926 107.16C260.078 106.879 260.245 106.601 260.421 106.332C260.601 106.063 260.788 105.797 260.988 105.54C261.192 105.283 261.403 105.032 261.623 104.79C262.591 104.052 264.007 102.635 265.549 102.862C267.094 103.089 266.387 104.847 266.129 105.355C266.031 105.663 265.946 105.974 265.875 106.287C265.807 106.601 265.752 106.918 265.715 107.235C265.678 107.555 265.657 107.872 265.65 108.191C265.644 108.511 265.654 108.831 265.678 109.151C265.78 109.578 265.813 110.015 265.786 110.451C265.759 110.884 265.671 111.315 265.518 111.73C265.365 112.146 265.155 112.543 264.89 112.911C264.622 113.279 264.306 113.613 263.943 113.909C263.226 114.408 262.479 114.869 261.701 115.287C260.924 115.706 260.119 116.085 259.291 116.417C258.462 116.752 257.61 117.042 256.744 117.284C255.875 117.529 254.988 117.726 254.095 117.876C251.264 117.876 250.554 115.326 249.719 114.815C249.495 114.65 249.247 114.513 248.985 114.405C248.72 114.298 248.442 114.22 248.153 114.175C247.868 114.13 247.576 114.121 247.284 114.142C246.995 114.163 246.71 114.22 246.435 114.307C246.245 114.366 246.062 114.444 245.888 114.534C245.715 114.624 245.549 114.728 245.396 114.845C245.243 114.958 245.101 115.087 244.972 115.224C244.846 115.362 244.731 115.511 244.632 115.667C244.87 115.879 245.094 116.1 245.315 116.324C245.535 116.551 245.746 116.782 245.953 117.018C246.157 117.254 246.354 117.496 246.54 117.744C246.727 117.992 246.907 118.243 247.08 118.497C247.216 118.82 247.342 119.149 247.454 119.478C247.566 119.809 247.668 120.141 247.753 120.479C247.837 120.814 247.912 121.154 247.97 121.495C248.031 121.836 248.075 122.177 248.109 122.52C248.201 122.765 248.309 123.008 248.439 123.241C248.564 123.474 248.714 123.698 248.877 123.913C249.04 124.128 249.216 124.332 249.413 124.526C249.607 124.72 249.817 124.903 250.041 125.07C250.405 125.444 250.741 125.841 251.039 126.257C251.338 126.675 251.603 127.108 251.834 127.56C252.062 128.008 252.252 128.474 252.404 128.95C252.557 129.422 252.669 129.906 252.744 130.396C252.764 130.776 252.758 131.158 252.72 131.538C252.686 131.918 252.622 132.297 252.53 132.668C252.435 133.041 252.316 133.409 252.17 133.768C252.021 134.126 251.848 134.476 251.647 134.814C250.941 135.439 250.683 135.663 250.489 134.249C250.445 133.962 250.36 133.681 250.238 133.412C250.119 133.143 249.963 132.889 249.773 132.653C249.583 132.417 249.362 132.205 249.114 132.013C248.866 131.825 248.595 131.661 248.303 131.529C248.004 131.347 247.688 131.191 247.359 131.063C247.029 130.934 246.686 130.833 246.333 130.761C245.984 130.689 245.624 130.644 245.264 130.632C244.9 130.617 244.54 130.632 244.184 130.68C242.123 130.68 240.965 132.094 239.678 132.208H236.459C236.459 132.208 235.753 132.207 235.753 133.965C235.702 134.584 235.722 135.208 235.814 135.824C235.906 136.443 236.069 137.05 236.303 137.638C236.534 138.224 236.833 138.789 237.192 139.324C237.556 139.859 237.977 140.361 238.456 140.819C240.9 143.255 242.768 145.126 242.058 147.675C241.352 150.225 238.391 151.301 234.595 150.282C234.833 150.724 235.091 151.163 235.366 151.594C235.637 152.021 235.929 152.443 236.235 152.855C236.544 153.268 236.867 153.671 237.203 154.063C237.542 154.454 237.895 154.837 238.262 155.21C238.877 155.704 239.478 156.209 240.068 156.726C240.659 157.243 241.237 157.772 241.8 158.31C242.364 158.848 242.914 159.398 243.45 159.957C243.987 160.519 244.51 161.087 245.019 161.667C245.984 163.14 247.209 166.258 246.693 166.766C246.177 167.277 243.539 164.954 242.768 164.67C243.152 165.355 243.518 166.045 243.861 166.748C244.208 167.447 244.534 168.153 244.839 168.867C245.148 169.581 245.433 170.302 245.698 171.028C245.967 171.754 246.211 172.487 246.435 173.225C246.625 174.247 246.778 175.278 246.897 176.309C247.012 177.341 247.094 178.378 247.135 179.415C247.179 180.449 247.186 181.489 247.155 182.526C247.124 183.564 247.057 184.598 246.951 185.632C246.877 186.116 246.785 186.6 246.673 187.082C246.564 187.563 246.435 188.041 246.293 188.513C246.147 188.988 245.984 189.458 245.804 189.921C245.624 190.384 245.427 190.845 245.213 191.296C244.826 191.807 244.119 191.296 244.377 190.22C244.523 189.637 244.602 189.039 244.612 188.442C244.622 187.844 244.564 187.246 244.439 186.66C244.31 186.071 244.116 185.497 243.858 184.941C243.596 184.388 243.277 183.862 242.897 183.366C242.897 184.185 242.88 185.004 242.849 185.823C242.815 186.642 242.768 187.461 242.703 188.277C242.639 189.096 242.557 189.912 242.462 190.725C242.364 191.541 242.252 192.354 242.123 193.167C241.695 194.638 241.135 196.078 240.449 197.474C239.763 198.87 238.951 200.215 238.024 201.497C237.094 202.779 236.055 203.996 234.907 205.132C233.763 206.271 232.517 207.329 231.182 208.291C230.432 208.796 229.654 209.268 228.853 209.708C228.052 210.144 227.223 210.548 226.374 210.912C225.529 211.28 224.66 211.609 223.777 211.899C222.89 212.189 221.991 212.443 221.077 212.655C221.084 212.966 221.07 213.277 221.036 213.585C221.003 213.895 220.952 214.203 220.88 214.508C220.809 214.81 220.721 215.112 220.615 215.408C220.507 215.704 220.385 215.997 220.242 216.281C219.987 216.55 219.726 216.816 219.461 217.076C219.193 217.339 218.921 217.593 218.639 217.844C218.361 218.095 218.076 218.34 217.784 218.579C217.495 218.818 217.196 219.054 216.894 219.281C216.843 219.338 216.802 219.401 216.775 219.47C216.748 219.536 216.734 219.607 216.734 219.679C216.734 219.751 216.748 219.822 216.775 219.891C216.802 219.957 216.843 220.02 216.894 220.077C217.288 220.056 217.685 220.056 218.079 220.074C218.473 220.094 218.867 220.13 219.254 220.19C219.644 220.247 220.031 220.322 220.408 220.417C220.789 220.51 221.162 220.623 221.529 220.755C223.59 221.55 227.257 223.191 227.963 223.361C228.384 223.364 228.805 223.373 229.227 223.391C229.644 223.409 230.065 223.436 230.483 223.469C230.904 223.502 231.322 223.544 231.739 223.592C232.154 223.639 232.571 223.696 232.985 223.759C233.464 223.95 233.933 224.156 234.395 224.381C234.853 224.602 235.305 224.838 235.746 225.089C236.187 225.34 236.619 225.606 237.04 225.884C237.457 226.165 237.868 226.455 238.262 226.76C238.574 227.011 238.914 227.232 239.274 227.426C239.634 227.618 240.018 227.776 240.411 227.902C240.809 228.03 241.22 228.12 241.637 228.177C242.051 228.23 242.476 228.251 242.897 228.233C243.4 228.263 243.899 228.299 244.401 228.341C244.9 228.383 245.403 228.434 245.902 228.49C246.401 228.547 246.897 228.61 247.396 228.682C247.892 228.75 248.388 228.828 248.88 228.915L251.841 229.877C252.551 229.877 254.289 229.877 255.447 230.613C255.854 230.867 256.214 231.174 256.516 231.524C256.819 231.871 257.06 232.259 257.233 232.672C257.403 233.084 257.501 233.518 257.528 233.954C257.552 234.394 257.501 234.833 257.376 235.257C257.287 235.275 257.196 235.287 257.104 235.296C257.012 235.305 256.921 235.311 256.829 235.311C256.737 235.311 256.646 235.305 256.554 235.296C256.462 235.287 256.374 235.275 256.282 235.257C255.766 235.257 255.124 233.954 254.35 233.954C253.994 233.948 253.634 233.93 253.277 233.9C252.921 233.873 252.564 233.835 252.208 233.787C251.854 233.742 251.501 233.682 251.148 233.616C250.798 233.551 250.449 233.476 250.106 233.389C249.858 233.267 249.603 233.156 249.342 233.057C249.084 232.959 248.815 232.872 248.547 232.794C248.276 232.72 248.004 232.654 247.725 232.603C247.447 232.549 247.169 232.511 246.887 232.484H243.797C243.97 232.777 244.153 233.063 244.347 233.347C244.537 233.634 244.737 233.912 244.948 234.187C245.158 234.462 245.376 234.731 245.603 234.994C245.831 235.257 246.065 235.517 246.306 235.768C246.629 236.061 246.968 236.342 247.321 236.608C247.671 236.874 248.038 237.125 248.415 237.365C248.792 237.601 249.182 237.825 249.583 238.031C249.98 238.237 250.391 238.426 250.812 238.602C252.292 238.94 254.931 239.735 255.447 240.981C255.96 242.228 255.447 244.38 254.415 245.058C254.415 245.058 253.902 243.133 252.873 242.792C252.33 242.745 251.79 242.688 251.25 242.625C250.71 242.559 250.17 242.488 249.634 242.407C249.097 242.326 248.564 242.24 248.031 242.144C247.498 242.045 246.965 241.944 246.435 241.83C246.143 241.69 245.865 241.528 245.603 241.346C245.342 241.166 245.101 240.966 244.877 240.748C244.652 240.533 244.449 240.3 244.269 240.055C244.085 239.81 243.929 239.549 243.797 239.28C243.719 238.925 243.596 238.575 243.437 238.24C243.274 237.909 243.074 237.589 242.836 237.293C242.595 236.994 242.323 236.722 242.021 236.474C241.715 236.229 241.386 236.011 241.029 235.825C241.029 235.825 240.642 240.243 241.029 240.811C241.417 241.376 241.8 241.887 241.929 242.455C242.024 242.733 242.096 243.02 242.143 243.31C242.191 243.597 242.218 243.889 242.218 244.182C242.218 244.472 242.191 244.765 242.143 245.055C242.096 245.342 242.024 245.629 241.929 245.91L240.578 247.156C240.557 246.998 240.53 246.84 240.493 246.684C240.452 246.529 240.408 246.373 240.354 246.224C240.299 246.071 240.238 245.922 240.167 245.772C240.099 245.626 240.021 245.483 239.936 245.342C239.743 245.133 239.542 244.927 239.338 244.723C239.135 244.52 238.924 244.323 238.71 244.129C238.496 243.934 238.276 243.746 238.052 243.561C237.824 243.375 237.597 243.196 237.362 243.02C237.216 242.772 237.108 242.509 237.033 242.237C236.958 241.965 236.921 241.684 236.921 241.406C236.921 241.125 236.958 240.847 237.033 240.575C237.108 240.303 237.216 240.04 237.362 239.792C237.474 239.499 237.559 239.2 237.614 238.898C237.671 238.593 237.698 238.285 237.698 237.977C237.698 237.669 237.671 237.362 237.614 237.06C237.559 236.755 237.474 236.456 237.362 236.166C236.782 235.371 235.43 232.992 234.272 232.708C233.997 232.612 233.719 232.531 233.43 232.466C233.145 232.403 232.853 232.355 232.561 232.328C232.269 232.298 231.974 232.289 231.678 232.295C231.383 232.301 231.087 232.328 230.795 232.37C230.154 232.708 229.831 233.787 228.609 234.295C227.386 234.806 225.777 234.92 225.132 235.314C224.772 235.479 224.442 235.688 224.154 235.942C223.868 236.196 223.627 236.486 223.444 236.806C223.261 237.122 223.135 237.466 223.07 237.819C223.009 238.172 223.009 238.53 223.074 238.883C222.778 238.826 222.493 238.728 222.232 238.593C221.97 238.459 221.733 238.291 221.525 238.094C221.322 237.9 221.152 237.678 221.02 237.436C220.89 237.194 220.799 236.94 220.758 236.674C220.639 236.303 220.588 235.918 220.602 235.532C220.619 235.144 220.704 234.764 220.853 234.4C221.003 234.038 221.213 233.697 221.481 233.389C221.75 233.084 222.069 232.815 222.429 232.597C223.716 231.916 226.035 231.18 226.547 230.499C227.064 229.82 226.099 228.688 227.193 228.177C226.683 227.911 226.164 227.656 225.641 227.411C225.115 227.166 224.585 226.933 224.045 226.712C223.508 226.488 222.965 226.279 222.418 226.078C221.868 225.878 221.315 225.69 220.758 225.513C220.079 225.4 219.396 225.301 218.714 225.217C218.031 225.134 217.342 225.068 216.656 225.014C215.967 224.963 215.278 224.928 214.588 224.907C213.899 224.886 213.21 224.88 212.517 224.892C212.388 225.289 212.242 225.681 212.089 226.072C211.933 226.464 211.767 226.849 211.59 227.232C211.414 227.618 211.223 227.994 211.023 228.371C210.826 228.744 210.616 229.115 210.395 229.48H209.495C209.427 229.175 209.359 228.867 209.281 228.565C209.206 228.26 209.125 227.955 209.04 227.653C208.955 227.352 208.863 227.05 208.768 226.751C208.67 226.449 208.571 226.153 208.463 225.854C208.205 225.188 207.977 224.509 207.784 223.825C207.59 223.137 207.434 222.444 207.308 221.747C207.186 221.051 207.094 220.349 207.04 219.643C206.986 218.938 206.969 218.232 206.982 217.527H206.534C206.476 217.975 206.385 218.424 206.259 218.863C206.137 219.299 205.977 219.733 205.787 220.151C205.597 220.573 205.376 220.982 205.125 221.377C204.874 221.771 204.592 222.151 204.28 222.512C203.926 222.758 203.563 222.994 203.19 223.218C202.819 223.442 202.439 223.657 202.052 223.861C201.665 224.064 201.271 224.258 200.87 224.437C200.47 224.62 200.059 224.79 199.648 224.948C199.247 225.179 198.86 225.421 198.483 225.678C198.103 225.932 197.736 226.201 197.383 226.482C197.027 226.76 196.684 227.05 196.351 227.352C196.022 227.656 195.702 227.967 195.4 228.29C196.056 228.682 196.694 229.094 197.315 229.528C197.937 229.961 198.538 230.415 199.118 230.891C199.702 231.366 200.263 231.859 200.799 232.37C201.339 232.881 201.855 233.41 202.351 233.954C203.831 236.336 204.409 238.034 205.566 238.318C206.011 238.387 206.456 238.459 206.901 238.539C207.342 238.617 207.784 238.701 208.225 238.79C208.663 238.88 209.101 238.976 209.539 239.077C209.977 239.176 210.412 239.283 210.846 239.394C211.875 239.848 212.646 240.924 213.549 241.152C213.902 241.178 214.256 241.199 214.609 241.211C214.962 241.226 215.318 241.232 215.672 241.232C216.028 241.232 216.381 241.226 216.734 241.211C217.091 241.199 217.444 241.178 217.797 241.152C218.347 241.238 218.897 241.337 219.444 241.453C219.991 241.567 220.531 241.696 221.07 241.836C221.607 241.979 222.14 242.135 222.666 242.302C223.196 242.473 223.716 242.655 224.232 242.849C224.677 243.014 225.128 243.166 225.587 243.301C226.045 243.435 226.51 243.555 226.979 243.659C227.447 243.764 227.919 243.851 228.395 243.925C228.87 243.997 229.349 244.054 229.831 244.096C230.476 244.111 231.114 244.221 231.715 244.43C232.316 244.637 232.873 244.933 233.356 245.309C233.841 245.683 234.249 246.131 234.558 246.63C234.867 247.126 235.077 247.67 235.172 248.232H233.885C233.885 248.232 233.243 246.872 232.405 247.156C231.569 247.437 228.802 247.494 227.773 247.664C227.773 247.664 229.831 249.479 229.573 250.839H228.221C228.221 250.839 226.935 249.763 225.906 249.82C224.877 249.876 218.761 249.82 217.41 249.82C216.059 249.82 215.223 248.684 213.807 248.232C212.391 247.778 207.369 247.213 206.405 246.872C205.882 246.747 205.352 246.645 204.819 246.562C204.286 246.475 203.75 246.412 203.213 246.37C202.673 246.328 202.13 246.304 201.59 246.304C201.05 246.302 200.507 246.322 199.967 246.361C199.624 246.448 199.281 246.538 198.938 246.63C198.595 246.726 198.256 246.825 197.92 246.929C197.58 247.031 197.244 247.141 196.911 247.255C196.575 247.369 196.242 247.485 195.913 247.608C194.949 247.948 191.665 248.062 190.765 248.289C190.365 248.343 189.967 248.439 189.59 248.57C189.21 248.699 188.847 248.866 188.511 249.066C188.171 249.267 187.859 249.5 187.58 249.76C187.298 250.02 187.051 250.304 186.84 250.612C186.84 250.612 185.102 250.612 185.937 249.308C186.137 248.833 186.388 248.379 186.691 247.948C186.996 247.521 187.349 247.12 187.747 246.756C188.144 246.391 188.585 246.062 189.061 245.778C189.533 245.492 190.042 245.252 190.572 245.058C193.146 244.323 194.049 244.436 194.82 243.869C195.04 243.71 195.254 243.546 195.465 243.378C195.679 243.211 195.886 243.038 196.089 242.864C196.293 242.688 196.494 242.512 196.69 242.329C196.887 242.147 197.078 241.962 197.264 241.773C197.387 241.507 197.499 241.238 197.607 240.966C197.716 240.697 197.818 240.425 197.916 240.15C198.011 239.875 198.103 239.6 198.188 239.322C198.273 239.047 198.351 238.766 198.426 238.488C198.432 238.169 198.405 237.852 198.344 237.538C198.28 237.224 198.185 236.919 198.052 236.62C197.92 236.324 197.753 236.043 197.556 235.774C197.359 235.508 197.132 235.26 196.881 235.033C196.042 234.408 191.73 230.499 190.83 230.499C190.616 230.505 190.405 230.532 190.202 230.583C189.994 230.633 189.798 230.708 189.614 230.801C189.427 230.894 189.258 231.007 189.105 231.139C188.952 231.27 188.816 231.417 188.708 231.575C188.572 231.772 188.443 231.97 188.317 232.17C188.191 232.367 188.069 232.57 187.95 232.774C187.832 232.977 187.719 233.18 187.607 233.386C187.499 233.595 187.393 233.802 187.292 234.011H186.453C186.371 233.578 186.327 233.138 186.324 232.696C186.317 232.256 186.351 231.814 186.422 231.378C186.494 230.941 186.602 230.511 186.745 230.089C186.891 229.665 187.074 229.256 187.292 228.858C188.708 227.214 190.636 225.741 191.346 224.892C192.052 224.043 193.404 221.774 193.404 221.774C193.084 221.49 192.775 221.197 192.473 220.898C192.171 220.597 191.879 220.292 191.594 219.981C191.309 219.667 191.034 219.35 190.765 219.024C190.5 218.702 190.242 218.373 189.994 218.035C189.828 217.506 189.672 216.977 189.529 216.442C189.387 215.907 189.258 215.372 189.139 214.831C189.02 214.293 188.915 213.752 188.823 213.211C188.728 212.667 188.646 212.123 188.579 211.579C188.579 211.579 174.161 205.912 172.165 204.552C170.198 203.114 168.311 201.59 166.511 199.991C164.708 198.392 162.993 196.718 161.377 194.975C159.757 193.233 158.233 191.421 156.81 189.547C155.391 187.676 154.07 185.745 152.857 183.761C152.239 182.398 151.666 181.017 151.143 179.621C150.616 178.228 150.138 176.818 149.706 175.398C149.279 173.978 148.895 172.549 148.562 171.109C148.229 169.668 147.944 168.221 147.71 166.766H147.258C147.258 166.766 147.258 174.642 147.71 179.343C148.226 182.721 148.627 186.113 148.905 189.512C149.183 192.91 149.34 196.317 149.377 199.725C149.414 203.132 149.333 206.543 149.129 209.947C148.925 213.348 148.603 216.747 148.161 220.133C145.007 233.219 139.537 244.55 125.055 250.668C125.055 250.668 123.252 250.214 125.055 249.365C125.887 249.033 126.685 248.645 127.445 248.202C128.202 247.76 128.922 247.264 129.595 246.72C130.267 246.179 130.888 245.59 131.452 244.959C132.019 244.332 132.525 243.662 132.97 242.963C133.588 241.361 134.128 239.738 134.593 238.097C135.058 236.456 135.442 234.797 135.751 233.126C136.056 231.458 136.284 229.776 136.433 228.09C136.583 226.404 136.651 224.712 136.64 223.021C136.111 220.537 135.547 218.059 134.943 215.59C134.342 213.118 133.703 210.655 133.028 208.198C132.348 205.742 131.639 203.294 130.888 200.855C130.138 198.416 129.354 195.983 128.532 193.562C127.941 191.49 127.445 189.395 127.038 187.291C126.634 185.184 126.318 183.061 126.097 180.933C125.877 178.805 125.751 176.671 125.714 174.534C125.68 172.397 125.741 170.26 125.893 168.126C124.997 170.137 124.203 172.182 123.51 174.253C122.817 176.324 122.23 178.42 121.744 180.536C121.259 182.652 120.878 184.789 120.603 186.932C120.328 189.078 120.162 191.233 120.101 193.391C120.131 195.66 120.257 197.922 120.478 200.182C120.702 202.439 121.021 204.689 121.435 206.925C121.849 209.164 122.359 211.385 122.963 213.59C123.568 215.793 124.267 217.975 125.055 220.133C128.851 229.707 129.367 238.432 125.055 237.75C125.048 236.862 124.977 235.975 124.841 235.093C124.705 234.211 124.508 233.338 124.247 232.481C123.989 231.62 123.666 230.777 123.282 229.952C122.902 229.13 122.464 228.329 121.965 227.555C118.62 222.626 105.425 204.157 103.622 194.694C103.167 193.098 102.807 191.478 102.549 189.846C102.294 188.214 102.138 186.573 102.084 184.927C102.03 183.28 102.077 181.63 102.227 179.989C102.376 178.345 102.627 176.713 102.98 175.093C102.142 176.471 101.266 177.828 100.352 179.164C99.4388 180.503 98.4847 181.818 97.4966 183.115C96.5085 184.409 95.483 185.683 94.4236 186.935C93.3642 188.187 92.2675 189.413 91.1367 190.617C90.2403 191.442 89.2896 192.226 88.2947 192.958C87.2964 193.693 86.2574 194.378 85.1742 195.011C84.0944 195.642 82.9739 196.225 81.8194 196.748C80.6649 197.274 79.4799 197.74 78.2677 198.153C74.2745 199.115 72.4749 198.718 72.7974 197.414C74.9298 196.823 76.9536 195.95 78.794 194.832C80.6377 193.711 82.2778 192.354 83.6632 190.809C85.0519 189.26 86.1657 187.539 86.9772 185.704C87.7853 183.865 88.2743 181.932 88.4339 179.965C88.7667 177.705 89.147 175.449 89.5816 173.201C90.0162 170.953 90.5018 168.711 91.0383 166.482C91.5748 164.252 92.1622 162.028 92.8006 159.819C93.4423 157.611 94.1316 155.411 94.8718 153.226C92.9398 154.666 90.9704 156.068 88.967 157.431C86.967 158.794 84.9297 160.121 82.8618 161.407C80.7973 162.692 78.6955 163.938 76.5665 165.143C74.4375 166.35 72.2813 167.513 70.0912 168.637C68.7635 169.238 67.3917 169.764 65.986 170.209C64.5802 170.654 63.1439 171.022 61.6838 171.303C60.2238 171.584 58.7467 171.781 57.2561 171.895C55.7688 172.008 54.2748 172.035 52.7807 171.978C52.7807 171.978 50.9777 170.959 54.0676 170.505C55.762 170.236 57.4089 169.767 58.9606 169.112C60.5124 168.457 61.9623 167.624 63.2628 166.631C64.5633 165.639 65.7109 164.497 66.6685 163.239C67.626 161.977 68.3866 160.611 68.9333 159.174C72.6039 151.866 80.1318 127.903 89.7208 118.781C90.7598 117.801 91.8226 116.841 92.9058 115.906C93.9924 114.967 95.1027 114.053 96.2368 113.159C97.371 112.265 98.5254 111.392 99.7037 110.547C100.882 109.698 102.081 108.876 103.303 108.075C101.351 108.395 99.3777 108.622 97.3981 108.753C95.4185 108.885 93.4321 108.918 91.4457 108.855C89.4594 108.795 87.4831 108.637 85.5171 108.383C83.5511 108.129 81.6021 107.779 79.6836 107.339C78.5257 106.981 77.4052 106.538 76.3322 106.012C75.2626 105.489 74.2439 104.883 73.2932 104.204C72.339 103.523 71.4562 102.772 70.6481 101.959C69.8433 101.146 69.1201 100.274 68.4851 99.35C67.4529 97.4252 70.0912 98.8957 71.1234 99.634C72.227 100.298 73.412 100.85 74.6548 101.281C75.901 101.711 77.1947 102.019 78.5155 102.196C79.8398 102.369 81.1776 102.414 82.5121 102.327C83.8431 102.24 85.164 102.019 86.4407 101.672C93.714 99.35 108.257 92.0421 113.021 90.3414C114.824 89.5612 116.668 88.8529 118.546 88.2222C120.423 87.5885 122.335 87.0356 124.274 86.5603C126.209 86.0851 128.168 85.6906 130.148 85.3767C132.128 85.0629 134.121 84.8297 136.124 84.6773C136.124 84.6773 114.885 81.8438 105.748 72.4406C100.536 66.6629 96.9941 59.355 98.1519 57.4839Z" fill="#D4AF37"/>
</svg>
